<?xml version="1.0" standalone="no"?>
<!DOCTYPE svg PUBLIC "-//W3C//DTD SVG 20010904//EN"
 "http://www.w3.org/TR/2001/REC-SVG-20010904/DTD/svg10.dtd">
<svg version="1.0" xmlns="http://www.w3.org/2000/svg"
 width="265.000000pt" height="265.000000pt" viewBox="0 0 265.000000 265.000000"
 preserveAspectRatio="xMidYMid meet">

<g transform="translate(0.000000,265.000000) scale(0.100000,-0.100000)"
fill="#000000" stroke="none">
<path d="M1043 2341 c-43 -11 -83 -38 -83 -56 0 -21 55 -46 116 -52 86 -9 184
24 184 63 0 36 -140 65 -217 45z"/>
<path d="M1791 2259 c-126 -25 -117 -86 15 -111 140 -26 270 52 162 96 -46 19
-125 25 -177 15z"/>
<path d="M885 2185 c-121 -43 -51 -112 106 -103 90 5 133 23 137 59 3 23 -3
29 -38 43 -50 20 -151 20 -205 1z"/>
<path d="M1654 2100 c-44 -14 -68 -43 -55 -68 17 -32 69 -47 163 -47 72 0 91
3 115 21 35 27 36 51 1 77 -22 16 -46 21 -110 23 -46 2 -97 -1 -114 -6z"/>
<path d="M744 2029 c-38 -11 -67 -41 -62 -66 2 -10 19 -26 38 -36 49 -25 191
-20 241 9 47 28 47 63 -1 86 -38 20 -160 23 -216 7z"/>
<path d="M1605 1945 c-5 -2 -27 -6 -49 -10 -51 -9 -91 -47 -76 -75 6 -11 25
-28 43 -37 45 -24 189 -24 234 0 89 47 46 107 -87 121 -30 3 -59 4 -65 1z"/>
<path d="M2251 1896 c-29 -76 -43 -272 -18 -264 22 8 39 80 44 186 4 73 2 102
-6 102 -6 0 -16 -11 -20 -24z"/>
<path d="M2077 1553 c-32 -61 -56 -277 -34 -299 22 -23 57 95 64 217 6 103 -5
132 -30 82z"/>
<path d="M610 1512 c-50 -25 -75 -78 -60 -132 13 -49 63 -108 107 -126 18 -8
53 -14 79 -14 39 0 51 5 80 34 57 57 45 138 -30 204 -33 28 -89 52 -126 52 -8
0 -31 -8 -50 -18z"/>
<path d="M1414 1391 c-44 -27 -64 -59 -64 -104 0 -48 19 -86 64 -125 71 -62
165 -64 224 -6 27 27 32 39 32 81 0 39 -6 59 -29 90 -54 74 -161 104 -227 64z"/>
<path d="M2151 1373 c-28 -72 -45 -273 -22 -273 18 0 42 89 56 202 10 87 -10
129 -34 71z"/>
<path d="M2221 1226 c-27 -69 -42 -256 -21 -256 16 0 41 101 47 193 4 63 3 87
-6 87 -6 0 -16 -11 -20 -24z"/>
<path d="M2058 850 c-34 -51 -63 -270 -38 -285 26 -16 63 136 58 242 -3 67 -3
68 -20 43z"/>
<path d="M637 799 c-29 -17 -49 -68 -42 -106 8 -46 66 -108 121 -129 110 -42
201 33 159 132 -20 49 -41 72 -87 95 -40 21 -122 25 -151 8z"/>
<path d="M1393 645 c-32 -32 -35 -40 -31 -78 7 -57 31 -92 85 -124 83 -48 176
-30 211 41 42 86 -59 196 -179 196 -45 0 -55 -4 -86 -35z"/>
</g>
</svg>
